<svg xmlns="http://www.w3.org/2000/svg" id="Layer_2" data-name="Layer 2" viewBox="0 0 660.82 261.35"><defs><style>      .cls-1 {        fill: #fff;      }      .cls-2 {        fill: #1b4ecd;      }      .cls-3 {        fill: #3d3d3d;      }    </style></defs><g id="Layer_1-2" data-name="Layer 1"><g><circle class="cls-1" cx="132.67" cy="133.3" r="42"></circle><g id="Layer_1-2" data-name="Layer 1-2"><g><path class="cls-3" d="M.64,118.12C4.24,79.37,26.3,42.94,58.9,21.67c81.77-54.16,192.35-1.12,201.76,96.36,6.07,57.99-30.15,115.22-84.98,134.92C86.08,286.24-8.62,213.39.63,118.25v-.13s.01,0,.01,0ZM130.58,35.87c-45.43-.54-87.15,34.67-94,79.59-7.14,39.69,14.43,81.87,50.57,99.66,46.54,24.18,105.76,4.37,128.77-42.65,31.51-62.83-15.26-136.69-85.2-136.59h-.13Z"></path><path class="cls-3" d="M130.5,261.35c-.35-.01-.7-.03-1.05-.05-.04,0-.07-.04-.1-.07.06-.04.12-.13.18-.13.74,0,1.49,0,2.24.01.04,0,.07.04.1.07-.06.04-.12.13-.18.13-.4.01-.79,0-1.18,0v.03h0Z"></path><path class="cls-2" d="M130.32,191.87c-11.95.74-23.72-3.49-33.68-9.88-12.26-8.22-21.54-20.76-25.45-35.08-.92-2.49-1.25-5.21-1.49-7.8-1.03-4.12-.97-8.54-.78-12.76.62-3.63.93-7.33,1.95-10.82.62-1.91,1.02-3.85,1.7-5.76,2.92-8.11,7.74-15.62,13.55-21.94,3.87-4.25,8.66-7.74,13.64-10.55,2.26-1.26,4.4-2.74,6.88-3.62,5.12-1.69,10.1-3.83,15.53-4.07,2.84-.14,5.47-1.19,8.37-1.01,2.5-.12,4.73.54,7.11.91,1.42.18,2.89.07,4.3.35,7.74,1.46,15.23,4.56,21.87,8.7,21.82,13.85,32.72,40.4,27.01,65.57-2.47,11.21-8.37,21.36-16.12,29.78-3.22,3.2-7.05,5.93-10.64,8.54-5.35,3.72-11.49,5.92-17.68,7.76-2.54.68-5.07,1.15-7.75,1.54-2.74.24-5.55.08-8.21.13h-.14,0ZM130.6,171.02c1.55-.31,2.31-2.85,3.03-4.2,1.62-3.94,3.4-7.93,4.99-11.89,3.59-8.68,7.26-17.18,10.82-25.93,2.49-6.02,5.24-11.78,7.47-17.9,3.37-7.42,6.2-12.96-4.9-7.68-13.58,5.93-27.43,11.41-41.05,17.33-5.41,2.08-10.6,4.58-15.99,6.65-1.59.74-5.69,1.83-4.07,4.13,1.81,1.62,4.62,1.87,6.86,2.62,4.11,1.23,8.42,2.18,12.49,3.5,3.27.79,5.49,1.76,2.39,4.88-2.52,2.56-5.11,5.1-7.64,7.66-2.51,2.29-6.48,6.13-3.26,9.45,4.66,4.02,9.51-4.13,12.83-6.79,1.66-1.66,3.33-3.39,4.98-4.96,1.66-1.63,2.81-1.1,3.41,1.01,1.56,4.43,2.6,9.11,3.85,13.65.35,1.34.77,2.61,1.17,3.87.57,1.52.66,4.29,2.54,4.6h.08v-.02Z"></path><g><path class="cls-3" d="M313.34,45.6v75.4h-15.12V45.6h15.12Z"></path><path class="cls-3" d="M393.27,121h-15.12l-34.24-51.74v51.74h-15.12V45.5h15.12l34.24,51.84v-51.84h15.12v75.51h0Z"></path><path class="cls-3" d="M460.02,45.6v12.21h-20.09v63.19h-15.12v-63.19h-20.09v-12.21s55.3,0,55.3,0Z"></path><path class="cls-3" d="M486.7,57.81v18.9h25.38v11.99h-25.38v19.98h28.62v12.32h-43.75V45.5h43.75v12.32h-28.62Z"></path><path class="cls-3" d="M594.07,121h-15.12l-34.24-51.74v51.74h-15.12V45.5h15.12l34.24,51.84v-51.84h15.12v75.51h0Z"></path><path class="cls-3" d="M660.82,45.6v12.21h-20.09v63.19h-15.12v-63.19h-20.09v-12.21s55.3,0,55.3,0Z"></path><path class="cls-3" d="M340.23,140.35v6.26h-33.27v28.19h28.08v6.26h-28.08v34.78h-7.56v-75.51h40.83Z"></path><path class="cls-3" d="M396.94,197.92h-34.35l-6.59,17.93h-7.99l27.54-74.53h8.54l27.43,74.53h-7.99l-6.59-17.93ZM394.67,191.66l-14.9-40.83-14.9,40.83h29.82,0Z"></path><path class="cls-3" d="M464.35,215.85l-18.69-31.54h-13.93v31.54h-7.56v-75.51h22.68c8.43,0,14.82,2.01,19.18,6.05,4.35,4.04,6.54,9.32,6.54,15.88,0,5.47-1.57,10.14-4.7,13.99-3.13,3.85-7.76,6.35-13.88,7.51l19.44,32.08h-9.07,0ZM431.72,178.15h15.23c5.9,0,10.35-1.44,13.34-4.32,2.99-2.88,4.49-6.74,4.49-11.56s-1.44-8.8-4.32-11.51c-2.88-2.7-7.42-4.05-13.61-4.05h-15.12v31.43h0Z"></path><path class="cls-3" d="M561.88,141.32v74.53h-7.56v-59.51l-26.57,59.51h-5.51l-26.57-59.3v59.3h-7.56v-74.53h7.99l28.84,64.59,28.84-64.59h8.1Z"></path></g></g></g></g></g></svg>